External Loads File
version=1
nRows=61
nColumns=13
Range=5.000000e-03-10 seconds
endheader
time 	forceRightX 	forceRightY 	forceRightZ 	pointRightX 	pointRightY 	pointRightZ 	forceLeftX 	forceLeftY 	forceLeftZ 	pointLeftX 	pointLeftY 	pointLeftZ 		
2.505000 89.261581 -114.793525 -0.000000 0.140836 0.248439 -0.114502 -293.842401 741.384729 -0.000000 0.379503 0.417383 -0.364330
2.510000 88.449368 -122.625051 -0.000000 0.138132 0.253307 -0.114398 -294.817431 746.151915 -0.000000 0.382230 0.412462 -0.364222
2.515000 87.347437 -130.010916 -0.000000 0.135542 0.258267 -0.114441 -295.194930 751.207050 -0.000000 0.384745 0.407449 -0.364246
2.520000 86.237911 -136.916420 -0.000000 0.133130 0.263234 -0.114379 -296.440249 756.424747 -0.000000 0.387072 0.402865 -0.364341
2.525000 84.529792 -143.822276 -0.000000 0.130865 0.268520 -0.114316 -295.164078 763.474368 -0.000000 0.389370 0.397620 -0.364369
2.530000 82.498391 -150.555828 -0.000000 0.128736 0.273807 -0.114233 -292.857093 771.972721 -0.000000 0.391272 0.391935 -0.364840
2.535000 80.578155 -156.796579 -0.000000 0.127473 0.279136 -0.113910 -291.590177 781.247577 -0.000000 0.393289 0.386653 -0.364946
2.540000 77.865969 -162.830775 -0.000000 0.125629 0.284669 -0.113897 -286.770567 793.040542 -0.000000 0.395149 0.380608 -0.365225
2.545000 74.855623 -168.126177 -0.000000 0.123230 0.290262 -0.114120 -280.909184 806.311842 -0.000000 0.396979 0.374660 -0.365398
2.550000 72.090221 -172.142948 -0.000000 0.121734 0.295823 -0.114114 -276.529367 820.031031 -0.000000 0.398520 0.369097 -0.365563
2.555000 68.675426 -175.006319 -0.000000 0.120377 0.301613 -0.114100 -269.132123 835.546200 -0.000000 0.399962 0.362834 -0.365686
2.560000 65.720852 -176.182782 -0.000000 0.119295 0.307288 -0.114062 -263.560341 851.140557 -0.000000 0.401167 0.357149 -0.365773
2.565000 62.471299 -176.074001 -0.000000 0.118361 0.313131 -0.114035 -255.486886 868.115026 -0.000000 0.402215 0.350803 -0.365843
2.570000 59.734256 -174.586894 -0.000000 0.117581 0.319001 -0.114042 -248.066017 885.400229 -0.000000 0.403059 0.344688 -0.365828
2.575000 57.494964 -171.967112 -0.000000 0.116806 0.324925 -0.114003 -240.765711 903.084109 -0.000000 0.403820 0.338616 -0.365764
2.580000 55.647735 -168.508704 -0.000000 0.116486 0.330974 -0.113995 -232.925624 921.330878 -0.000000 0.404487 0.332348 -0.365455
2.585000 54.375381 -164.402019 -0.000000 0.116231 0.336979 -0.113854 -225.809028 939.885485 -0.000000 0.404910 0.326065 -0.365766
2.590000 53.608337 -159.846989 -0.000000 0.116199 0.343057 -0.113891 -219.686018 958.773708 -0.000000 0.405159 0.319885 -0.365728
2.595000 53.170147 -155.012496 -0.000000 0.116419 0.349127 -0.113801 -214.288992 978.032353 -0.000000 0.405232 0.313612 -0.365723
2.600000 53.062989 -150.021989 -0.000000 0.116931 0.355207 -0.113800 -210.473596 997.301009 -0.000000 0.405054 0.307580 -0.365925
2.605000 52.816600 -145.197568 -0.000000 0.117670 0.361413 -0.113865 -206.108178 1016.765863 -0.000000 0.404799 0.301334 -0.365909
2.610000 52.287889 -140.705876 -0.000000 0.118568 0.367509 -0.113866 -201.193199 1036.100903 -0.000000 0.404388 0.294734 -0.365887
2.615000 51.600579 -136.524579 -0.000000 0.119666 0.373613 -0.113860 -197.830471 1054.586117 -0.000000 0.403851 0.288589 -0.365964
2.620000 50.307129 -132.811668 -0.000000 0.121080 0.380091 -0.113795 -193.796098 1072.378111 -0.000000 0.403039 0.282752 -0.366367
2.625000 48.461305 -129.553185 -0.000000 0.122731 0.385637 -0.113960 -190.504573 1088.991134 -0.000000 0.402320 0.276277 -0.365573
2.630000 45.813403 -126.851425 -0.000000 0.124476 0.391708 -0.113942 -186.644978 1104.456337 -0.000000 0.401191 0.270366 -0.365543
2.635000 42.263941 -124.744016 -0.000000 0.126600 0.397698 -0.113928 -181.606456 1118.683496 -0.000000 0.399865 0.264327 -0.365480
2.640000 38.051153 -123.176340 -0.000000 0.128871 0.403685 -0.113912 -177.455764 1131.221652 -0.000000 0.398238 0.258838 -0.365602
2.645000 32.875271 -122.274787 -0.000000 0.131487 0.409687 -0.114050 -171.141361 1142.510428 -0.000000 0.396569 0.252997 -0.365482
2.650000 26.936561 -121.928572 -0.000000 0.134151 0.415608 -0.114154 -163.865628 1152.290001 -0.000000 0.394673 0.247020 -0.365388
2.655000 20.484083 -121.957188 -0.000000 0.137228 0.421337 -0.114193 -157.103046 1160.250556 -0.000000 0.392635 0.241467 -0.365269
2.660000 13.578465 -122.228923 -0.000000 0.140344 0.427088 -0.114375 -150.452113 1166.362633 -0.000000 0.390486 0.236203 -0.365082
2.665000 6.123934 -122.634091 -0.000000 0.143708 0.432758 -0.114514 -141.987268 1170.782038 -0.000000 0.388035 0.230789 -0.365016
2.670000 -1.628224 -122.996917 -0.000000 0.147263 0.438341 -0.114725 -132.823231 1173.215408 -0.000000 0.385362 0.225516 -0.364938
2.675000 -9.484561 -123.170131 -0.000000 0.151007 0.443767 -0.114795 -123.077259 1173.432756 -0.000000 0.382586 0.220299 -0.364858
2.680000 -17.366211 -123.087664 -0.000000 0.154998 0.449172 -0.114898 -111.580963 1171.288640 -0.000000 0.379482 0.215211 -0.364874
2.685000 -24.975617 -122.804505 -0.000000 0.159122 0.454391 -0.115086 -99.354170 1166.399619 -0.000000 0.376315 0.210254 -0.364739
2.690000 -32.229429 -122.406282 -0.000000 0.163376 0.459416 -0.115053 -85.655863 1158.572009 -0.000000 0.372799 0.205495 -0.364735
2.695000 -38.830200 -122.082362 -0.000000 0.167076 0.464357 -0.115804 -72.310239 1147.468588 -0.000000 0.369093 0.200838 -0.364683
2.700000 -45.029302 -121.895740 -0.000000 0.171544 0.469071 -0.116036 -56.707966 1133.124098 -0.000000 0.365198 0.196419 -0.364653
2.705000 -50.667011 -121.986257 -0.000000 0.176113 0.473604 -0.116234 -40.756960 1115.361678 -0.000000 0.361125 0.192168 -0.364517
2.710000 -56.086545 -122.215162 -0.000000 0.181515 0.478204 -0.115823 -22.013565 1094.378045 -0.000000 0.356768 0.188077 -0.364479
2.715000 -60.706049 -122.779212 -0.000000 0.186060 0.482467 -0.116372 -6.171819 1070.347330 -0.000000 0.352253 0.184158 -0.364431
2.720000 -64.929363 -123.378658 -0.000000 0.190899 0.486400 -0.116585 10.409518 1043.704910 -0.000000 0.347411 0.180453 -0.364797
2.725000 -68.658843 -123.895380 -0.000000 0.196025 0.490201 -0.116706 27.096820 1014.635899 -0.000000 0.342604 0.176953 -0.364710
2.730000 -71.873393 -124.162541 -0.000000 0.201163 0.493898 -0.116697 43.807011 983.214013 -0.000000 0.337574 0.173557 -0.364706
2.735000 -74.443578 -124.078157 -0.000000 0.206345 0.497315 -0.116622 59.151847 949.582337 -0.000000 0.332581 0.170552 -0.364544
2.740000 -76.558541 -123.338991 -0.000000 0.211577 0.500391 -0.116624 73.625840 913.953106 -0.000000 0.327362 0.167773 -0.364522
2.745000 -78.273746 -121.685876 -0.000000 0.216897 0.503457 -0.116599 86.172587 876.858045 -0.000000 0.322353 0.165185 -0.363828
2.750000 -79.876020 -118.687746 -0.000000 0.222247 0.506282 -0.116839 97.286595 838.895915 -0.000000 0.316972 0.162896 -0.363840
2.755000 -81.372675 -114.096813 -0.000000 0.227546 0.508847 -0.117089 105.581065 800.961922 -0.000000 0.311612 0.160885 -0.363814
2.760000 -82.967413 -107.576620 -0.000000 0.232888 0.511182 -0.117178 111.253878 763.808443 -0.000000 0.306247 0.159090 -0.363732
2.765000 -84.934081 -98.788615 -0.000000 0.238648 0.513191 -0.117240 115.193683 727.997165 -0.000000 0.300802 0.157560 -0.363711
2.770000 -87.137460 -87.809825 -0.000000 0.243866 0.515002 -0.117193 115.593835 694.352650 -0.000000 0.295378 0.156179 -0.363627
2.775000 -89.918856 -74.356427 -0.000000 0.249351 0.516511 -0.117233 114.624289 662.851622 -0.000000 0.289844 0.155103 -0.363629
2.780000 -93.270660 -58.416650 -0.000000 0.255084 0.517647 -0.117623 112.683189 633.532804 -0.000000 0.284248 0.154164 -0.363574
2.785000 -97.076389 -40.088706 -0.000000 0.260904 0.518121 -0.117840 109.963687 606.292221 -0.000000 0.278662 0.153484 -0.363505
2.790000 -101.194814 -19.526243 -0.000000 0.266416 0.518672 -0.117930 106.865240 580.728019 -0.000000 0.272953 0.153062 -0.363572
2.795000 -105.486083 3.131447 -0.000000 0.271827 0.518900 -0.117980 104.152201 556.063654 -0.000000 0.267230 0.152865 -0.363561
2.800000 -109.778273 27.814558 -0.000000 0.277215 0.518747 -0.117991 102.653800 531.304026 -0.000000 0.261307 0.152924 -0.363658
2.805000 -113.946219 54.371115 -0.000000 0.282477 0.518316 -0.118058 101.948504 505.658754 -0.000000 0.255491 0.153377 -0.363693
